<svg xmlns="http://www.w3.org/2000/svg" viewBox="0 0 722 702">
  <g fill="#326CE5">
    <path d="M358.986 6.685c-9.4-4.2-20.2-4.4-29.7-.5L81.186 117.885c-9.8 4-17.6 12-21.3 22.1l-55.7 259c-3.6 10.3-1.6 21.7 5.4 30.3l170 210.4c7 8.6 17.7 13.6 29 13.6h268.2c11.3 0 22-5 29-13.6l170-210.4c7-8.6 9-20 5.4-30.3l-55.7-259c-3.7-10.1-11.5-18.1-21.3-22.1l-248.1-111.2z"/>
  </g>
  <g fill="#fff">
    <path d="M359.386 155.285c-12.5 0-22.7 10.2-22.7 22.7v10.1c-.4 4.4-2 24.1-15.4 40.1-8.3 9.9-19.9 17-34.6 21.2-1.3.4-2.7.8-4 1.3l-1.4-2.5c-2.5-4.3-8.1-5.8-12.4-3.3-4.3 2.5-5.8 8.1-3.3 12.4l1.4 2.4c-14.7 10.8-25.9 24.9-32.9 41.8-9.5 23-10.7 48.8-3.6 72.7 7.1 23.9 22.3 44.5 42.8 58.1 15.1 10 32.5 15.7 50.4 16.6v8.7h-47.7c-4.4 0-8 3.6-8 8s3.6 8 8 8h47.7v35.5c0 4.4 3.6 8 8 8s8-3.6 8-8v-35.5h47.7c4.4 0 8-3.6 8-8s-3.6-8-8-8h-47.7v-8.7c17.9-.9 35.3-6.6 50.4-16.6 20.5-13.6 35.7-34.2 42.8-58.1 7.1-23.9 5.9-49.7-3.6-72.7-7-16.9-18.2-31-32.9-41.8l1.4-2.4c2.5-4.3 1-9.9-3.3-12.4-4.3-2.5-9.9-1-12.4 3.3l-1.4 2.5c-1.3-.5-2.7-.9-4-1.3-14.7-4.2-26.3-11.3-34.6-21.2-13.4-16-15-35.7-15.4-40.1v-10.1c0-12.5-10.2-22.7-22.7-22.7zm-69.4 121.2c10.5-10.5 23.5-18.3 38.3-22.5 4.6-1.3 9.3-2.3 14-2.9 13.5-1.8 17.1 1.9 17.1 1.9s3.6-3.7 17.1-1.9c4.7.6 9.4 1.6 14 2.9 14.8 4.2 27.8 12 38.3 22.5 10.5 10.5 18.3 23.5 22.5 38.3 4.2 14.8 4.2 30.6 0 45.4-4.2 14.8-12 27.8-22.5 38.3-10.5 10.5-23.5 18.3-38.3 22.5-14.8 4.2-30.6 4.2-45.4 0-14.8-4.2-27.8-12-38.3-22.5-10.5-10.5-18.3-23.5-22.5-38.3-4.2-14.8-4.2-30.6 0-45.4 4.2-14.8 12-27.8 22.5-38.3z"/>
    <circle cx="359.4" cy="338" r="22"/>
  </g>
</svg>
